<svg width="1em" height="1em" viewBox="0 0 16 16" fill="currentColor" xmlns="http://www.w3.org/2000/svg">
    <path d="M2.57337788 16.3782731L1.64472754 14.5327046 1.04253522 14.8318988 1.6957045 14.669638 1.6550281 14.5079602C1.56484424 14.1495034 1.19930193 13.9315635.83856649 14.0211777.477831053 14.1107918.258505664 14.4740251.348689524 14.8324818L.407290889 15.0654066 1.36899322 16.9766615C1.53528404 17.3071423 1.93970007 17.4410961 2.27228171 17.2758557 2.60486335 17.1106153 2.7396687 16.7087539 2.57337788 16.3782731zM1.37305939 11.4070088L1.37305939 10.9290067.727567525 10.9290067 1.24396101 11.346857 2.26911577 9.8721462C2.48301296 9.56444973 2.42521365 9.12793452 2.1400174 8.89716217 1.85482115 8.66638982 1.45022598 8.72874914 1.2363288 9.0364456L.0820756638 10.6968677.0820756638 11.4070088C.0820756638 11.7916294.371072214 12.103426.727567525 12.103426 1.08406284 12.103426 1.37305939 11.7916294 1.37305939 11.4070088zM4.28939617 7.62431116L5.31912836 6.65645986 5.38722412 6.58266309 5.97957575 5.84032341C6.22248853 5.53590322 6.15684863 5.10403591 5.83296492 4.87572077 5.50908121 4.64740563 5.04960187 4.70910096 4.80668909 5.01352115L4.21433746 5.75586083 4.28243322 5.68206405 3.25270103 6.64991535C2.96642557 6.91898732 2.96642557 7.35523919 3.25270103 7.62431116 3.53897648 7.89338313 4.00312071 7.89338313 4.28939617 7.62431116zM4.336.831L9.74.086 10.513 5.296 9.103 5.491 8.532 1.64 4.537 2.19z" transform="rotate(15 8.815 20.643)"></path>
</svg>