<svg xmlns="http://www.w3.org/2000/svg" xmlns:xlink="http://www.w3.org/1999/xlink" version="1.1" x="0px" y="0px" viewBox="0 0 66 66" enable-background="new 0 0 66 66" xml:space="preserve"><g><path d="M33,1C15.355,1,1,15.355,1,33s14.355,32,32,32s32-14.355,32-32S50.645,1,33,1z M63,33   c0,1.901-0.186,3.758-0.525,5.561c-3.159-9.351-9.213-17.735-17.377-24.015c2.814-1.505,6.01-2.373,9.401-2.44   C59.754,17.513,63,24.883,63,33z M10.699,53.041c-2.24-2.49-4.07-5.356-5.383-8.49c10.527,5.393,24.007,5.671,36.279,0.016   c0.727,1.918,1.176,3.935,1.321,5.986C32.518,55.034,21.121,55.918,10.699,53.041z M4.287,41.686C3.453,38.935,3,36.02,3,33   c0-1.881,0.182-3.719,0.515-5.504c6.632,9.143,19.185,12.232,29.445,6.67c3.486,2.133,6.146,5.129,7.838,8.566   C28.629,48.353,14.768,47.974,4.287,41.686z M32.023,32.389c-3.59,1.951-7.512,2.756-11.332,2.503   c1.214-13.348,8.472-25.16,19.157-31.094C44.59,4.91,48.9,7.147,52.483,10.216C41.193,11.413,32.331,20.852,32.023,32.389z    M43.248,15.654c9.079,6.766,15.544,16.194,18.264,26.659c-1.058,3.23-2.647,6.219-4.669,8.864   c-0.619-12.043-7.366-23.782-18.12-31.385C40.021,18.203,41.544,16.805,43.248,15.654z M36.858,3.257   C26.72,9.81,19.914,21.536,18.705,34.665c-2.025-0.329-3.997-0.949-5.846-1.849c1.321-11.261,6.265-21.586,13.986-29.178   C28.832,3.221,30.891,3,33,3C34.308,3,35.594,3.093,36.858,3.257z M23.109,4.683c-6.533,7.415-10.776,16.861-12.133,27.084   c-2.719-1.69-5.076-4.033-6.832-6.949C6.812,15.422,13.95,7.892,23.109,4.683z M13.488,55.759   c10.067,2.014,20.27,0.737,29.463-3.059c-0.103,3.197-0.952,6.408-2.596,9.385C38,62.681,35.537,63,33,63   C25.554,63,18.738,60.267,13.488,55.759z M43.004,61.278c4.614-10.378,0.871-22.778-8.969-28.815   c0.106-4.084,1.369-7.882,3.498-11.064c10.939,7.716,17.536,19.887,17.35,32.091C51.633,56.959,47.573,59.657,43.004,61.278z"/></g></svg>