<svg width="86" height="86" viewBox="0 0 86 86" fill="none" xmlns="http://www.w3.org/2000/svg">
<path d="M3.81013 25.4505C4.37679 24.1283 5.0379 22.9005 5.79346 21.6727C13.349 8.54495 27.4212 0.422729 42.5323 0.422729C49.4268 0.422729 56.0379 2.02829 62.0823 5.2394C68.3157 8.45051 73.699 13.2672 77.6657 19.1227C81.2546 24.3172 83.5212 30.1727 84.5601 36.4061C84.8435 38.5783 85.0323 40.7505 85.0323 42.9227C85.0323 47.8338 84.1823 52.6505 82.5768 57.2783C82.5768 57.2783 82.5768 57.2783 82.5768 57.3727C78.9879 67.3838 71.7157 75.695 62.1768 80.6061C56.1323 83.7227 49.3323 85.4227 42.5323 85.4227C21.5657 85.4227 3.52679 69.8394 0.50457 49.1561C0.221237 47.0783 0.0323486 45.0005 0.0323486 42.9227C0.0323486 36.8783 1.26013 30.9283 3.81013 25.4505ZM47.9157 71.9172C50.8435 64.8338 50.5601 57.9394 50.3712 55.8616C48.3879 54.9172 41.7768 51.5172 34.9768 46.0394C30.1601 42.1672 26.2879 38.1061 23.3601 33.8561C20.149 29.2283 18.1657 24.4116 17.4101 19.5005C15.1435 19.9727 10.2324 21.2005 7.58791 22.995C7.02124 23.9394 6.54902 24.9783 6.0768 26.0172C11.7435 54.445 41.7768 69.1783 47.9157 71.9172ZM10.2324 19.2172C13.349 18.0838 16.6546 17.3283 17.8824 17.045C19.2046 15.345 25.0601 8.45051 33.5601 3.82273C24.2101 5.99495 15.899 11.4727 10.2324 19.2172ZM42.6268 2.78384C30.7268 5.52273 21.3768 16.2894 19.6768 18.4616C20.2435 22.7116 21.7546 26.9616 24.3046 31.0227C27.6101 26.3005 38.849 12.2283 58.2101 5.99495C53.299 3.91717 48.1046 2.78384 42.6268 2.78384ZM82.2935 48.6838C82.5768 46.7949 82.6712 44.8116 82.6712 42.9227C82.6712 41.3172 82.5768 39.7116 82.3879 38.1061C81.4435 38.3894 80.499 38.7672 79.5546 39.145C80.3101 40.9394 81.5379 44.5283 82.2935 48.6838ZM77.5712 37.3505C79.0823 36.7838 80.499 36.2172 82.0101 35.745C81.0657 30.5505 79.0823 25.6394 76.249 21.1061C54.149 28.4727 40.8323 41.4116 37.4324 44.9061C43.4768 49.5338 49.2379 52.5561 51.2212 53.5949C52.9212 51.8005 58.1157 46.8894 67.6546 41.8838C70.7712 40.1838 74.1712 38.6727 77.5712 37.3505ZM67.2768 44.7172C58.5879 49.5338 53.9601 54.1616 52.7323 55.3894C52.9212 57.5616 53.3935 65.6838 49.6157 73.9005C48.1046 77.3005 45.9324 80.3227 43.3824 82.8727C43.3824 82.8727 43.2879 82.9672 43.1935 82.9672C49.3324 82.8727 55.2823 81.3616 60.7601 78.5283C69.5435 67.7616 68.0324 50.195 67.2768 44.7172ZM41.4935 83.0616C37.2435 81.9283 17.8824 76.0727 6.54902 60.5838C12.9712 73.6172 26.3824 82.6838 41.4935 83.0616Z" fill="black"/>
</svg>
