<svg xmlns="http://www.w3.org/2000/svg" width="67" height="67" viewBox="0 0 67 67" fill="none"><circle cx="33.5" cy="33.5" r="33.5" fill="black"></circle><path d="M27.3067 53.887L25.4995 62.2431L25.3495 62.9431L25.1995 63.643C22.5995 62.9288 20.1138 61.8789 17.7852 60.5219L17.671 59.622L17.5567 58.7078L16.9424 53.887H27.3067Z" fill="#FFD23F"></path><path d="M39.714 64.1358C37.8069 64.5215 35.8569 64.7286 33.8997 64.75C33.764 64.75 33.6283 64.75 33.4926 64.75C33.3569 64.75 33.2212 64.75 33.0926 64.75C31.1355 64.7286 29.1855 64.5143 27.2783 64.1358L27.4283 63.4359L27.5783 62.7359L29.4997 53.887H37.4997L39.414 62.7359L39.564 63.4359L39.714 64.1358Z" fill="#FFD23F"></path><path d="M50.064 53.8869L49.4497 58.7078L49.3354 59.622L49.2211 60.5219C47.1783 61.7146 45.0068 62.6716 42.7497 63.3644C42.4426 63.4572 42.1211 63.5501 41.8068 63.6358L41.6569 62.9359L41.5068 62.236L39.6997 53.8798H50.064V53.8869Z" fill="#FFD23F"></path><path d="M9.05671 39.5815C9.04242 39.5386 9.03528 39.4958 9.021 39.4458C12.5496 40.5457 18.4067 42.0098 26.0139 42.624C28.4281 42.8168 30.8639 42.9168 33.3067 42.9168C41.421 42.9168 49.6639 41.8527 57.9067 39.7243C56.7424 44.2738 54.2853 48.4876 50.8567 51.7444H16.1424C15.5353 51.1659 14.9424 50.5445 14.3924 49.9089L14.3139 49.816C14.2281 49.7161 14.1424 49.6161 14.0567 49.5089C14.0067 49.4518 13.9639 49.3947 13.9139 49.3304C13.7496 49.1304 13.5924 48.9233 13.4353 48.7233L13.4281 48.7162C13.3853 48.659 13.3424 48.6019 13.2996 48.5448L13.2924 48.5376C13.1924 48.4019 13.0853 48.2591 12.9781 48.1091L12.971 48.0948C12.9424 48.0591 12.9139 48.0234 12.8924 47.9805L12.8853 47.9663C12.8424 47.9091 12.7996 47.8448 12.7567 47.7806L12.7496 47.7663C12.7139 47.7163 12.6781 47.6663 12.6496 47.6163L12.6353 47.602C12.5781 47.5163 12.521 47.4377 12.471 47.352L12.4639 47.3449C12.4424 47.3092 12.4139 47.2663 12.3853 47.2306L12.3781 47.2163C12.3281 47.1449 12.2853 47.0735 12.2353 46.9949L12.2281 46.9878C12.1853 46.9235 12.1496 46.8664 12.1139 46.8021L12.1067 46.795C12.0139 46.645 11.9353 46.5164 11.8567 46.3879C11.8139 46.3236 11.7781 46.2522 11.7353 46.1879L11.721 46.1665C11.6853 46.1022 11.6496 46.0379 11.6139 45.9736L11.5353 45.8379C11.521 45.8094 11.5067 45.7808 11.4853 45.7451L11.471 45.7237C11.4496 45.6808 11.421 45.6379 11.3996 45.5951C11.2424 45.3023 11.0924 45.0166 10.9496 44.7381L10.9424 44.7309C10.9067 44.6666 10.8781 44.5952 10.8424 44.5238C10.7496 44.331 10.6567 44.1381 10.571 43.9596L10.4924 43.7953C10.4639 43.7382 10.4353 43.6739 10.4139 43.6096L10.4067 43.5953C10.371 43.5168 10.3353 43.4311 10.2996 43.3454C10.2639 43.2668 10.2281 43.1811 10.1996 43.1025C10.1567 43.0025 10.121 42.9025 10.0781 42.8026C10.0424 42.7169 10.0067 42.6311 9.97814 42.5454C9.94242 42.4455 9.89957 42.3455 9.86385 42.2455L9.78528 42.0169C9.76385 41.9598 9.74242 41.8955 9.721 41.8384V41.8312C9.69957 41.767 9.671 41.6955 9.64957 41.6313L9.57814 41.4241C9.55671 41.3599 9.53528 41.2956 9.51385 41.2313C9.471 41.0956 9.42814 40.9599 9.38528 40.8171C9.36385 40.7528 9.34242 40.6814 9.32814 40.6171V40.61C9.30671 40.5457 9.29242 40.4814 9.271 40.41V40.3957C9.26385 40.3743 9.25671 40.3528 9.24957 40.3314C9.24242 40.3028 9.23528 40.2743 9.22814 40.2529C9.18528 40.11 9.14957 39.9529 9.10671 39.7886C9.09242 39.7243 9.07814 39.6529 9.05671 39.5815Z" fill="#FFD23F"></path><path d="M8.68576 29.2111C8.6929 29.154 8.70718 29.104 8.71433 29.054C15.9786 26.6329 34.1215 22.2976 58.2286 28.7255C58.2286 28.7326 58.2286 28.7398 58.2357 28.754C58.2786 28.9612 58.3143 29.1826 58.35 29.4111L58.3715 29.5254C58.4 29.7111 58.4286 29.9039 58.4572 30.0967C58.4643 30.161 58.4715 30.2253 58.4786 30.2896V30.3039C58.4929 30.4038 58.5 30.5038 58.5143 30.6038L58.5215 30.6824C58.5357 30.7752 58.5429 30.8752 58.55 30.9681L58.5572 31.0252C58.5715 31.1395 58.5786 31.2609 58.5929 31.3823C58.6072 31.5037 58.6143 31.6251 58.6215 31.7466V31.7608C58.6215 31.7894 58.6286 31.818 58.6286 31.8465V31.8537C58.6357 31.9537 58.6429 32.0465 58.6429 32.1465C58.65 32.2322 58.65 32.3108 58.6572 32.3965V32.4108C58.6572 32.425 58.6572 32.4465 58.6572 32.4536C58.6572 32.4965 58.6572 32.5322 58.6643 32.575C58.6643 32.625 58.6643 32.675 58.6715 32.725L58.6786 32.9536V32.9607V33.0178V33.0535C58.6786 33.1178 58.6786 33.1892 58.6857 33.2535C58.6857 33.3392 58.6857 33.4249 58.6857 33.5178C58.6857 33.9177 58.6786 34.3248 58.6572 34.7248C58.6357 35.1747 58.6 35.6175 58.5572 36.0532C58.5429 36.2175 58.5215 36.3817 58.5 36.5674C58.4929 36.6246 58.4857 36.6817 58.4786 36.7317L58.4715 36.8103C58.4643 36.8674 58.4572 36.9245 58.45 36.9817V36.996C58.4357 37.0888 58.4215 37.1745 58.4143 37.2602V37.2745C58.4072 37.3102 58.4 37.3531 58.3929 37.3959C34.1 43.9094 15.8786 39.5242 8.57861 37.0602C8.56433 36.9817 8.55718 36.896 8.5429 36.8103C8.53576 36.746 8.52861 36.6888 8.52147 36.6246L8.50004 36.4246C8.4929 36.3675 8.48576 36.3103 8.47861 36.2603V36.2389C8.47147 36.1746 8.46433 36.1103 8.45718 36.0461C8.41433 35.6104 8.37861 35.1676 8.35718 34.7176C8.33576 34.3391 8.32861 33.932 8.32861 33.5178C8.32861 33.4106 8.32861 33.3035 8.32861 33.1964C8.32861 33.1035 8.32861 33.0107 8.33576 32.9107V32.9036C8.33576 32.8179 8.3429 32.7393 8.3429 32.6607V32.6393C8.3429 32.6179 8.3429 32.6036 8.3429 32.5893V32.5536C8.3429 32.4679 8.35004 32.3893 8.35718 32.3036C8.35718 32.2465 8.36433 32.1965 8.36433 32.1394V32.1179C8.36433 32.0537 8.37147 31.9894 8.37861 31.918C8.38576 31.8251 8.3929 31.7251 8.40004 31.6251C8.40004 31.5894 8.40718 31.5537 8.40718 31.5251V31.5109C8.41433 31.4323 8.42147 31.3537 8.42861 31.268L8.43576 31.218C8.45718 30.9966 8.47861 30.7895 8.50004 30.5967C8.50718 30.5181 8.52147 30.4396 8.52861 30.3681L8.53576 30.2967C8.5429 30.261 8.5429 30.2253 8.55004 30.1967V30.1753C8.55718 30.1253 8.56433 30.0753 8.57147 30.0253V30.011C8.58576 29.9039 8.60004 29.8039 8.61433 29.7039L8.65004 29.4968C8.65718 29.454 8.66433 29.4111 8.67147 29.3683V29.354C8.67861 29.3111 8.68576 29.2683 8.6929 29.2326L8.68576 29.2111Z" fill="#FFD23F"></path><path d="M15.3 58.0293L15.4286 59.0006C13.3071 57.4936 11.3786 55.7295 9.69285 53.7512L9.52143 53.5512C9.45 53.4655 9.37143 53.3727 9.29286 53.2727C8.12143 51.8443 7.07857 50.3016 6.17857 48.6875C4.1 44.9522 2.82857 40.9027 2.40714 36.646C2.35 36.1032 2.31429 35.5533 2.28571 35.0033C2.26429 34.5177 2.25 34.0106 2.25 33.5106C2.25 29.5611 2.97857 25.7115 4.41429 22.0691C4.91429 20.7907 5.51429 19.5337 6.18571 18.3267C7.10714 16.6697 8.19286 15.0842 9.40714 13.6129C11.1786 11.4703 13.2143 9.5848 15.4714 7.98499L15.3643 8.94202L15.2571 9.92048L14.85 13.5486C11.8929 16.3197 9.55714 19.7479 8.07857 23.5046C8.00714 23.6761 7.94286 23.8546 7.87143 24.0474C7.84286 24.126 7.81428 24.2117 7.77857 24.2974C7.77143 24.3117 7.76428 24.326 7.76428 24.3403C7.74286 24.4117 7.71428 24.476 7.69286 24.5474C7.67143 24.5974 7.65714 24.6545 7.64286 24.6974C7.62857 24.7474 7.60714 24.7974 7.59286 24.8545L7.57857 24.8902C7.56428 24.9331 7.55 24.9688 7.54286 25.0116L7.51428 25.0902C7.51428 25.1045 7.50714 25.1116 7.50714 25.1259L7.48571 25.183C7.47857 25.2116 7.47143 25.2402 7.46428 25.2616C7.40714 25.4473 7.35 25.633 7.3 25.8044C7.28571 25.8544 7.27143 25.9044 7.25714 25.9544C7.22857 26.0615 7.19286 26.1686 7.16428 26.2829C7.12143 26.4257 7.08571 26.5757 7.04286 26.74L7.03571 26.7614C7.02857 26.7971 7.01428 26.8328 7.00714 26.8685C6.90714 27.2614 6.82143 27.6542 6.74286 28.0398C6.72143 28.147 6.7 28.2541 6.67857 28.3612C6.65 28.5255 6.61428 28.6826 6.59286 28.8469C6.58571 28.904 6.57143 28.9612 6.56428 29.0183C6.55714 29.0683 6.55 29.1183 6.54286 29.1683L6.51428 29.3683C6.5 29.4754 6.47857 29.5897 6.46428 29.7039C6.45 29.7682 6.44286 29.8396 6.43571 29.9039C6.42857 29.9468 6.42857 29.9825 6.42143 30.0253L6.41428 30.0896C6.4 30.1825 6.39286 30.2682 6.38571 30.3539C6.35714 30.5681 6.33571 30.7967 6.31428 31.0466C6.31428 31.0609 6.31428 31.0823 6.30714 31.0966C6.3 31.1752 6.29286 31.2609 6.28571 31.3395C6.28571 31.3823 6.27857 31.4252 6.27857 31.468C6.27143 31.5752 6.26429 31.6823 6.25714 31.7894C6.25 31.8608 6.25 31.9323 6.24286 32.0037V32.018C6.24286 32.0822 6.23571 32.1394 6.23571 32.1965C6.22857 32.2894 6.22857 32.3751 6.22857 32.4679C6.22857 32.5036 6.22143 32.5465 6.22143 32.5822C6.21429 32.675 6.21428 32.7607 6.21428 32.8464C6.21428 32.9536 6.20714 33.0536 6.20714 33.1607C6.20714 33.275 6.20714 33.3964 6.20714 33.5106C6.20714 33.9606 6.22143 34.4034 6.23571 34.8176C6.25714 35.3033 6.29286 35.789 6.34286 36.2532C6.35 36.3246 6.35714 36.396 6.36429 36.4674V36.4889C6.37143 36.5532 6.37857 36.6174 6.38571 36.6817L6.40714 36.8817C6.41428 36.9531 6.42143 37.0174 6.43571 37.0888C6.45 37.2102 6.47143 37.3316 6.48571 37.4531C6.5 37.5745 6.52143 37.6959 6.54286 37.8173C6.55714 37.8887 6.56428 37.9673 6.57857 38.0387C6.59286 38.1173 6.60714 38.1958 6.62143 38.2744C6.63571 38.3529 6.65 38.4244 6.66428 38.5029C6.69286 38.6601 6.72143 38.81 6.75714 38.9672C6.77143 39.0457 6.78571 39.1243 6.80714 39.1957C6.87143 39.4957 6.94286 39.8099 7.01428 40.1099C7.03571 40.1885 7.05 40.267 7.07143 40.3384C7.12143 40.5241 7.16428 40.6884 7.20714 40.8527L7.22857 40.9312C7.23571 40.9598 7.24286 40.9884 7.25 41.0169C7.27143 41.0884 7.29286 41.1669 7.31428 41.2383C7.33571 41.3098 7.35714 41.3883 7.37857 41.4597C7.42143 41.6097 7.47143 41.7526 7.51428 41.9025V41.9097C7.53571 41.9811 7.56428 42.0525 7.58571 42.1239L7.65714 42.3453C7.67857 42.4168 7.70714 42.4882 7.72857 42.5596V42.5668C7.75 42.6382 7.77857 42.7167 7.80714 42.7882C7.82857 42.8453 7.84286 42.8953 7.86428 42.9524C7.87143 42.9738 7.87857 42.9953 7.88571 43.0167C7.92857 43.1238 7.96428 43.231 8.00714 43.3452C8.04286 43.4381 8.07857 43.5309 8.11428 43.6238C8.15714 43.7309 8.2 43.838 8.24286 43.9452C8.27857 44.038 8.32143 44.1309 8.35714 44.2166C8.4 44.3094 8.43571 44.4023 8.47857 44.4951C8.50714 44.5665 8.54286 44.6379 8.57143 44.7094L8.65 44.8808C8.74286 45.0808 8.83571 45.2879 8.94286 45.495C8.97857 45.5736 9.02143 45.6521 9.05714 45.7307C9.20714 46.0306 9.37143 46.3449 9.54286 46.652C9.57143 46.7091 9.6 46.7591 9.62857 46.8091C9.65 46.8448 9.67143 46.8877 9.69285 46.9305C9.70714 46.952 9.71428 46.9734 9.72857 46.9948C9.74285 47.0234 9.75714 47.0448 9.77143 47.0662C9.81428 47.1377 9.85714 47.2091 9.9 47.2805V47.2876C9.94286 47.3591 9.98571 47.4305 10.0214 47.5019C10.1071 47.6447 10.1929 47.7876 10.2929 47.9519C10.3357 48.0233 10.3857 48.0947 10.4286 48.1661C10.4786 48.2518 10.5357 48.3304 10.5857 48.4161C10.6143 48.4589 10.6429 48.5018 10.6714 48.5446C10.7357 48.6375 10.7929 48.7303 10.8571 48.8232V48.8303C10.9 48.8946 10.9429 48.9589 10.9857 49.0232C11.0357 49.0946 11.0786 49.1589 11.1286 49.2303C11.1643 49.2803 11.2 49.3303 11.2357 49.3803C11.35 49.5445 11.4643 49.7017 11.5786 49.8516C11.6286 49.9159 11.6714 49.9802 11.7214 50.0445L11.7286 50.0516C11.9 50.273 12.0786 50.5016 12.25 50.7158C12.3 50.7801 12.3571 50.8444 12.4071 50.9087C12.4143 50.9158 12.4214 50.9229 12.4286 50.9301V50.9372L12.6857 51.2372C13.3214 51.98 14 52.6942 14.7071 53.3655L15.1786 57.0651L15.3 58.0293Z" fill="#FFD23F"></path><path d="M27.2781 12.9917H17.0566L17.5852 8.27798L17.6852 7.37094L17.7852 6.47819C19.1352 5.69256 20.5352 5.00693 21.9852 4.43556C23.0281 4.02133 24.1066 3.66422 25.1995 3.36426L25.4995 4.7641L27.2781 12.9917Z" fill="#FFD23F"></path><path d="M39.7214 2.87136L39.5714 3.57128L39.4214 4.2712L37.5356 12.9988H29.4714L27.5856 4.2712L27.4356 3.57128L27.2856 2.87136C29.3214 2.45712 31.4071 2.25 33.4999 2.25C35.5928 2.25714 37.6785 2.46426 39.7214 2.87136Z" fill="#FFD23F"></path><path d="M49.9431 12.9917H39.7217L41.5003 4.7641L41.6503 4.06418L41.8003 3.36426C44.3931 4.07846 46.8788 5.1212 49.2074 6.47819L49.3074 7.37094L49.4074 8.27084L49.9431 12.9917Z" fill="#FFD23F"></path><path d="M57.6505 26.3544C47.072 23.6547 36.5005 22.6976 26.1863 23.5047C18.6505 24.0903 12.8148 25.5259 9.27197 26.6186C9.27912 26.5901 9.28626 26.5615 9.2934 26.5329V26.5258C9.30054 26.4829 9.31483 26.4472 9.32912 26.3972C9.37912 26.233 9.42912 26.0615 9.47912 25.8973L9.48626 25.8687C9.48626 25.8616 9.4934 25.8473 9.4934 25.8401C9.50054 25.8187 9.50769 25.7973 9.51483 25.7759V25.7687C9.51483 25.7616 9.52197 25.7473 9.52197 25.7401L9.55054 25.6544C9.55769 25.6259 9.57197 25.5973 9.57912 25.5616L9.5934 25.5259C9.60769 25.483 9.62197 25.4402 9.63626 25.3902C9.65054 25.3402 9.66483 25.2973 9.68626 25.2473V25.2331C9.70769 25.1688 9.72912 25.1045 9.75054 25.0474L9.75769 25.0188C9.78626 24.9402 9.81483 24.8617 9.8434 24.7831C9.90769 24.6046 9.97197 24.4403 10.0363 24.276C11.3934 20.8264 13.5363 17.6768 16.2505 15.1271H50.6934C50.722 15.1485 50.7434 15.1771 50.772 15.1985L50.7934 15.2128C50.8362 15.2556 50.8791 15.2985 50.9291 15.3413L50.9434 15.3556C50.9791 15.3913 51.0077 15.4199 51.0434 15.4556L51.0577 15.4699C51.1291 15.5413 51.2005 15.6056 51.2648 15.677L51.2791 15.6913C51.2862 15.6984 51.2934 15.7056 51.3005 15.7127L51.322 15.7341C51.4148 15.827 51.5005 15.9127 51.5934 16.0055C51.6648 16.0841 51.7434 16.1627 51.8148 16.2341L51.822 16.2412C51.8648 16.2912 51.9077 16.3341 51.9505 16.3841L51.9577 16.3912C52.0505 16.4912 52.1434 16.5912 52.2362 16.6912C52.3005 16.7626 52.3577 16.834 52.422 16.8983L52.4291 16.9054C52.472 16.9554 52.5148 17.0054 52.5577 17.0554L52.5934 17.0983C52.622 17.134 52.6577 17.1697 52.6862 17.2054C52.7077 17.234 52.7362 17.2625 52.7648 17.2983L52.772 17.3054C52.8077 17.3483 52.8362 17.384 52.872 17.4268L52.8791 17.434C52.9505 17.5125 53.0148 17.5982 53.0791 17.6768L53.0862 17.6839C53.1077 17.7054 53.122 17.7339 53.1434 17.7553L53.2148 17.8411L53.222 17.8482C53.2505 17.8839 53.272 17.9125 53.3005 17.9482L53.3077 17.9553C53.322 17.9767 53.3362 17.991 53.3505 18.0125L53.3577 18.0196C53.4148 18.091 53.4648 18.1624 53.522 18.2339L53.5291 18.241C53.572 18.2981 53.6148 18.3553 53.6577 18.4124L53.6648 18.4196C53.7077 18.4767 53.7505 18.5338 53.7934 18.591L53.8005 18.6052C53.8291 18.6481 53.8648 18.691 53.9005 18.7409C54.0505 18.9552 54.2005 19.1695 54.3505 19.3837C54.3791 19.4194 54.4005 19.4623 54.4291 19.498C54.472 19.5623 54.5148 19.6266 54.5577 19.6908L54.572 19.7123C54.572 19.7123 54.572 19.7123 54.572 19.7194L54.6291 19.8051C54.672 19.8694 54.7148 19.9337 54.7505 19.9979C54.7577 20.0051 54.7648 20.0194 54.7648 20.0265C54.8005 20.0908 54.8434 20.1479 54.8791 20.2122L54.8934 20.2336C54.9291 20.2908 54.9648 20.3551 55.0005 20.4122L55.0077 20.4265C55.0505 20.4907 55.0862 20.555 55.1291 20.6264C55.2005 20.7479 55.272 20.8621 55.3434 20.9907C55.3791 21.0478 55.4077 21.105 55.4434 21.1692L55.4505 21.1835C55.5148 21.2907 55.5791 21.4121 55.6434 21.5263L55.6577 21.5478C55.6791 21.5835 55.6934 21.6192 55.7148 21.6549L55.7362 21.6978C55.7648 21.7549 55.7934 21.8049 55.822 21.862L55.8434 21.9049L55.8505 21.912C55.8862 21.9763 55.9148 22.0334 55.9434 22.0977L55.9505 22.112C55.9934 22.1906 56.0291 22.2691 56.072 22.3477V22.3548C56.1005 22.412 56.1291 22.4691 56.1577 22.5262V22.5334C56.1934 22.6048 56.2291 22.6762 56.2648 22.7476V22.7548C56.2934 22.8119 56.3148 22.8619 56.3434 22.9262C56.3791 22.9976 56.4148 23.069 56.4434 23.1476C56.4862 23.2476 56.5291 23.3404 56.572 23.4404L56.5862 23.4761C56.6077 23.5261 56.6291 23.5833 56.6505 23.6332L56.6577 23.6475C56.6862 23.719 56.722 23.7904 56.7505 23.8689C56.7791 23.9404 56.8077 24.0189 56.8434 24.0903V24.0975C56.872 24.1689 56.9005 24.2403 56.9291 24.3189L56.9362 24.3332C56.9434 24.3546 56.9505 24.3689 56.9577 24.3832L56.9791 24.426C57.022 24.5331 57.0577 24.6403 57.1005 24.7403L57.1077 24.7545C57.1148 24.776 57.122 24.7903 57.1291 24.8045L57.1434 24.8474C57.1577 24.8902 57.1791 24.9331 57.1934 24.976L57.2005 24.9902C57.222 25.0402 57.2362 25.0974 57.2577 25.1474L57.2648 25.1688C57.272 25.1902 57.2791 25.2045 57.2862 25.2259L57.2934 25.2331C57.322 25.3116 57.3505 25.3902 57.372 25.4688C57.4005 25.5473 57.422 25.6259 57.4505 25.6973L57.4577 25.7116C57.4791 25.783 57.5005 25.8544 57.5291 25.9258L57.5648 26.0473C57.5791 26.083 57.5862 26.1187 57.6005 26.1544V26.1687C57.6148 26.233 57.6362 26.2901 57.6505 26.3544Z" fill="#FFD23F"></path><path d="M64.75 33.5036C64.75 34.0106 64.7357 34.5106 64.7143 35.0034C64.6857 35.5533 64.65 36.1033 64.5929 36.6461C64.5071 37.5031 64.3857 38.3744 64.2286 39.2315C63.6143 42.5525 62.4643 45.7307 60.8214 48.6875C59.9214 50.2945 58.8786 51.8372 57.7071 53.2656C55.9214 55.4511 53.8643 57.3723 51.5714 59.0006L51.6929 58.0293L51.8214 57.0366L52.2929 53.337C54.3071 51.4301 56.0143 49.2375 57.3643 46.8163C58.8143 44.2238 59.8214 41.4312 60.3571 38.5173V38.503C60.3714 38.4101 60.3929 38.3244 60.4071 38.2316L60.4143 38.2102C60.4286 38.1245 60.4429 38.0388 60.4571 37.9602C60.4786 37.8316 60.5 37.7031 60.5143 37.5745C60.5286 37.4817 60.5429 37.3817 60.5571 37.2888C60.5714 37.2174 60.5786 37.146 60.5857 37.0746L60.5929 36.996C60.6 36.9317 60.6071 36.8675 60.6143 36.8103C60.6357 36.6103 60.6571 36.4318 60.6786 36.2532C60.7286 35.7819 60.7643 35.2962 60.7857 34.8177C60.8071 34.3892 60.8143 33.9464 60.8143 33.5107C60.8143 33.4179 60.8143 33.325 60.8143 33.2322C60.8143 33.1536 60.8143 33.0822 60.8071 33.0036C60.8071 32.9893 60.8071 32.9679 60.8071 32.9536C60.8071 32.9322 60.8071 32.9036 60.8071 32.8822V32.8608C60.8071 32.8465 60.8071 32.8251 60.8071 32.8108L60.8 32.6751C60.8 32.6108 60.8 32.5394 60.7929 32.4751C60.7929 32.4537 60.7929 32.4251 60.7929 32.3965C60.7929 32.3608 60.7929 32.3251 60.7857 32.2966C60.7786 32.2037 60.7786 32.1109 60.7714 32.018C60.7643 31.9109 60.7571 31.8038 60.75 31.7038C60.75 31.6681 60.7429 31.6252 60.7429 31.5895C60.7357 31.4609 60.7214 31.3252 60.7143 31.2038C60.7071 31.0753 60.6929 30.9538 60.6786 30.8253C60.6786 30.811 60.6786 30.7896 60.6714 30.7753C60.6571 30.6682 60.65 30.5539 60.6357 30.4468C60.6357 30.4111 60.6286 30.3825 60.6214 30.3468C60.6071 30.2396 60.5929 30.1325 60.5786 30.0254C60.5714 29.9468 60.5571 29.8683 60.55 29.804C60.5214 29.5969 60.4929 29.3897 60.4571 29.1826L60.4357 29.0755C60.3929 28.8255 60.35 28.5827 60.3071 28.3541C60.2857 28.247 60.2643 28.1399 60.2429 28.0256C60.2357 28.0042 60.2357 27.9756 60.2286 27.9542C60.2143 27.8685 60.1929 27.7899 60.1786 27.7042C60.1786 27.6899 60.1714 27.6757 60.1714 27.6685C60.1714 27.6542 60.1643 27.6399 60.1643 27.6257C60.1286 27.4471 60.0857 27.29 60.05 27.1329C60.0429 27.09 60.0286 27.0472 60.0143 26.9972L60 26.9329C59.9929 26.9115 59.9929 26.89 59.9857 26.8686C59.9786 26.8472 59.9714 26.8257 59.9714 26.8043C59.9643 26.7829 59.9571 26.7543 59.9571 26.7329C59.9429 26.6829 59.9286 26.6329 59.9143 26.5758C59.9143 26.5615 59.9071 26.5544 59.9071 26.5401C59.9071 26.5329 59.9 26.5186 59.9 26.5115C59.8929 26.4901 59.8857 26.4615 59.8786 26.4401C59.8786 26.4258 59.8714 26.4115 59.8643 26.3972C59.8571 26.3829 59.8571 26.3615 59.85 26.3472C59.85 26.3329 59.8429 26.3187 59.8429 26.3115C59.8357 26.2687 59.8214 26.233 59.8071 26.1901C59.7929 26.1473 59.7857 26.0973 59.7714 26.0544C59.75 25.9758 59.7214 25.8901 59.7 25.8116C59.6786 25.7259 59.65 25.6473 59.6286 25.5616C59.6143 25.5116 59.6 25.4616 59.5857 25.4116L59.5571 25.3188C59.55 25.3045 59.55 25.2902 59.5429 25.2759C59.5214 25.2045 59.4929 25.1331 59.4714 25.0617L59.4643 25.0474C59.4357 24.9617 59.4071 24.876 59.3786 24.7974C59.35 24.7117 59.3214 24.6331 59.2929 24.5474C59.2857 24.5189 59.2714 24.4903 59.2571 24.4546C59.2357 24.3903 59.2143 24.326 59.1929 24.2618C59.1714 24.2118 59.1571 24.1546 59.1357 24.1046C59.1214 24.0689 59.1143 24.0332 59.1 23.9975C59.0571 23.8832 59.0143 23.769 58.9714 23.6547L58.95 23.6047C58.9429 23.5833 58.9286 23.5547 58.9214 23.5333C58.8929 23.4547 58.8571 23.369 58.8214 23.2904C58.7857 23.2047 58.7571 23.1262 58.7214 23.0476C58.6857 22.969 58.6571 22.8833 58.6214 22.8048C58.5929 22.7405 58.5714 22.6834 58.5429 22.6191L58.5286 22.5834C58.4786 22.4762 58.4357 22.362 58.3857 22.2548C58.35 22.1763 58.3143 22.0977 58.2786 22.0192C58.25 21.962 58.2214 21.8977 58.1929 21.8406C58.1571 21.762 58.1143 21.6763 58.0786 21.5978C58.0429 21.5264 58.0143 21.4621 57.9786 21.3978C57.9357 21.305 57.8929 21.2192 57.8429 21.1335C57.8071 21.0621 57.7714 20.9978 57.7357 20.9336C57.7286 20.9193 57.7214 20.8979 57.7071 20.8836C57.6714 20.8193 57.6429 20.755 57.6071 20.6907L57.5929 20.6622C57.5643 20.6122 57.5357 20.5622 57.5071 20.5122C57.4357 20.3836 57.3643 20.2551 57.3 20.1337C57.2643 20.0694 57.2214 19.998 57.1857 19.9337C57.1071 19.8051 57.0286 19.6694 56.9571 19.5409C56.9143 19.4694 56.8714 19.398 56.8286 19.3337C56.7857 19.2552 56.7357 19.1838 56.6929 19.1123C56.65 19.0409 56.6 18.9624 56.5571 18.8909C56.55 18.8838 56.55 18.8767 56.5429 18.8695C56.5 18.8052 56.4643 18.741 56.4214 18.6767C56.4071 18.6553 56.3929 18.6338 56.3786 18.6124C56.3714 18.6053 56.3643 18.591 56.3571 18.5838L56.3357 18.5553C56.2857 18.4838 56.2357 18.4124 56.1929 18.3339C56.1643 18.291 56.1357 18.2482 56.1071 18.2053C55.95 17.9768 55.7857 17.7411 55.6214 17.5197C55.5857 17.4697 55.55 17.4197 55.5071 17.3697C55.4571 17.3054 55.4143 17.2411 55.3643 17.1769C55.3143 17.1126 55.2643 17.0483 55.2143 16.984C55.1571 16.9055 55.0929 16.8269 55.0357 16.7483C55.0143 16.7198 54.9929 16.6912 54.9714 16.6698C54.9357 16.6269 54.9071 16.5841 54.8714 16.5412C54.8643 16.5269 54.8571 16.5198 54.8429 16.5055C54.8071 16.4626 54.7714 16.4198 54.7357 16.3769C54.6643 16.2841 54.5929 16.1984 54.5143 16.1055C54.4786 16.0555 54.4357 16.0127 54.3929 15.9627C54.3643 15.927 54.3357 15.8913 54.3071 15.8556C54.2786 15.8199 54.2429 15.777 54.2071 15.7413C54.1929 15.727 54.1786 15.7056 54.1643 15.6913C54.1214 15.6413 54.0714 15.5842 54.0286 15.5342C53.9643 15.4556 53.8929 15.3842 53.8214 15.3056L53.8143 15.2985C53.7143 15.1914 53.6143 15.0842 53.5143 14.9771C53.4643 14.92 53.4143 14.8628 53.3571 14.8128C53.2786 14.7271 53.2 14.6486 53.1214 14.5629C53.0286 14.4629 52.9286 14.3629 52.8286 14.2629L52.8143 14.2486C52.8 14.2343 52.7786 14.2129 52.7643 14.1986C52.6929 14.1272 52.6143 14.0558 52.5429 13.9772C52.5 13.9344 52.4571 13.8915 52.4071 13.8487C52.35 13.7915 52.3 13.7415 52.2429 13.6915C52.2 13.6558 52.1643 13.6201 52.1214 13.5844L51.7143 9.95625L51.6071 8.97779L51.5 8.02075C53.7643 9.62057 55.8 11.5061 57.5643 13.6487C58.7714 15.1128 59.8571 16.6983 60.7857 18.3553C62.0714 20.6622 63.0571 23.1333 63.7143 25.683C64.4143 28.2042 64.75 30.8467 64.75 33.5036Z" fill="#FFD23F"></path></svg>