<svg width="1em" height="1em" viewBox="0 0 16 16" fill="currentColor" xmlns="http://www.w3.org/2000/svg">
    <path d="M1.57029603 15.1938887L3.52285448 12.9594162C3.84636494 12.5891967 3.8060177 12.0289686 3.4327364 11.7081117 3.05945509 11.3872548 2.49459375 11.4272711 2.17108329 11.7974906L.218524834 14.0319631C-.104985632 14.4021826-.0646383933 14.9624107.308642914 15.2832676.681924221 15.6041245 1.24678556 15.5641082 1.57029603 15.1938887zM6.11339947 9.84906111L8.06595792 7.61458866C8.38946839 7.24436916 8.34912115 6.68414104 7.97583984 6.36328413 7.60255854 6.04242723 7.0376972 6.08244352 6.71418673 6.45266303L4.76162828 8.68713548C4.43811782 9.05735498 4.47846505 9.6175831 4.85174636 9.93844001 5.22502767 10.2592969 5.78988901 10.2192806 6.11339947 9.84906111zM6.681.487L13.665 0 14.164 6.821 12.342 6.948 11.973 1.906 6.811 2.267z" transform="rotate(4 7.707 25.648)"></path>
</svg>