<svg width="1084" height="689" viewBox="0 0 1084 689" fill="none" xmlns="http://www.w3.org/2000/svg">
<mask id="path-1-inside-1_788_72" fill="white">
<path d="M68.0684 260.15L68.0683 445.737L0.72637 445.737L0.726379 260.15L68.0684 260.15Z"/>
</mask>
<path d="M0.72637 445.737L-4.27363 445.737L-4.27363 450.737L0.726369 450.737L0.72637 445.737ZM0.726379 260.15L0.72638 255.15L-4.27362 255.15L-4.27362 260.15L0.726379 260.15ZM68.0683 440.737L0.72637 440.737L0.726369 450.737L68.0683 450.737L68.0683 440.737ZM5.72637 445.737L5.72638 260.15L-4.27362 260.15L-4.27363 445.737L5.72637 445.737ZM0.726379 265.15L68.0684 265.15L68.0684 255.15L0.72638 255.15L0.726379 265.15Z" fill="black" mask="url(#path-1-inside-1_788_72)"/>
<mask id="path-3-inside-2_788_72" fill="white">
<path d="M1016.47 260.15L1016.47 445.737L1083.81 445.737L1083.81 260.15L1016.47 260.15Z"/>
</mask>
<path d="M1083.81 445.737L1088.81 445.737L1088.81 450.737L1083.81 450.737L1083.81 445.737ZM1083.81 260.15L1083.81 255.15L1088.81 255.15L1088.81 260.15L1083.81 260.15ZM1016.47 440.737L1083.81 440.737L1083.81 450.737L1016.47 450.737L1016.47 440.737ZM1078.81 445.737L1078.81 260.15L1088.81 260.15L1088.81 445.737L1078.81 445.737ZM1083.81 265.15L1016.47 265.15L1016.47 255.15L1083.81 255.15L1083.81 265.15Z" fill="black" mask="url(#path-3-inside-2_788_72)"/>
<path d="M543.073 50.2599L541.468 646.193" stroke="black" stroke-width="5"/>
<path d="M300.296 46.9858L300.296 646.193" stroke="#FFD23F" stroke-width="5" stroke-dasharray="6 6"/>
<path d="M363.872 46.9858L363.872 646.193" stroke="#497F2C" stroke-width="5" stroke-dasharray="6 6"/>
<path d="M173.487 46.9858L173.487 646.193" stroke="#FF0000" stroke-width="5" stroke-dasharray="6 6"/>
<path d="M788.038 46.9858L788.038 646.193" stroke="#FFD23F" stroke-width="5" stroke-dasharray="6 6"/>
<path d="M724.462 46.9858L724.462 646.193" stroke="#497F2C" stroke-width="5" stroke-dasharray="6 6"/>
<path d="M914.847 46.9858L914.847 646.193" stroke="#FF0000" stroke-width="5" stroke-dasharray="6 6"/>
<rect x="70.5684" y="49.4858" width="943.408" height="594.207" stroke="black" stroke-width="5"/>
<path d="M126.325 30.1245C126.325 28.3245 126.613 26.7885 127.189 25.5165C127.765 24.2205 128.797 22.7925 130.285 21.2325C131.749 19.6725 132.757 18.3405 133.309 17.2365C133.885 16.1325 134.173 14.9805 134.173 13.7805C134.173 12.7005 133.993 11.9565 133.633 11.5485C133.297 11.1165 132.793 10.9005 132.121 10.9005C130.753 10.9005 130.069 11.7285 130.069 13.3845V16.0845H126.325V13.6365C126.325 11.5965 126.829 10.0365 127.837 8.95647C128.845 7.85247 130.309 7.30047 132.229 7.30047C134.149 7.30047 135.613 7.85247 136.621 8.95647C137.629 10.0365 138.133 11.5965 138.133 13.6365C138.133 15.1725 137.761 16.6725 137.017 18.1365C136.297 19.6005 135.037 21.2805 133.237 23.1765C132.061 24.4245 131.269 25.4445 130.861 26.2365C130.453 27.0045 130.249 27.8325 130.249 28.7205V29.2605H137.773V32.8605H126.325V30.1245ZM144.411 7.66047H150.063L152.583 25.6965H152.655L155.175 7.66047H160.827V32.8605H157.083V13.7805H157.011L154.131 32.8605H150.819L147.939 13.7805H147.867V32.8605H144.411V7.66047Z" fill="black"/>
<path d="M925.421 30.1245C925.421 28.3245 925.709 26.7885 926.285 25.5165C926.861 24.2205 927.893 22.7925 929.381 21.2325C930.845 19.6725 931.853 18.3405 932.405 17.2365C932.981 16.1325 933.269 14.9805 933.269 13.7805C933.269 12.7005 933.089 11.9565 932.729 11.5485C932.393 11.1165 931.889 10.9005 931.217 10.9005C929.849 10.9005 929.165 11.7285 929.165 13.3845V16.0845H925.421V13.6365C925.421 11.5965 925.925 10.0365 926.933 8.95647C927.941 7.85247 929.405 7.30047 931.325 7.30047C933.245 7.30047 934.709 7.85247 935.717 8.95647C936.725 10.0365 937.229 11.5965 937.229 13.6365C937.229 15.1725 936.857 16.6725 936.113 18.1365C935.393 19.6005 934.133 21.2805 932.333 23.1765C931.157 24.4245 930.365 25.4445 929.957 26.2365C929.549 27.0045 929.345 27.8325 929.345 28.7205V29.2605H936.869V32.8605H925.421V30.1245ZM943.507 7.66047H949.159L951.679 25.6965H951.751L954.271 7.66047H959.923V32.8605H956.179V13.7805H956.107L953.227 32.8605H949.915L947.035 13.7805H946.963V32.8605H943.507V7.66047Z" fill="black"/>
<path d="M288.876 33.2205C286.956 33.2205 285.492 32.6805 284.484 31.6005C283.476 30.4965 282.972 28.9245 282.972 26.8845V24.9045H286.716V27.1725C286.716 28.8045 287.4 29.6205 288.768 29.6205C290.136 29.6205 290.82 28.8045 290.82 27.1725V21.5205C290.82 19.8645 290.136 19.0365 288.768 19.0365C287.4 19.0365 286.716 19.8645 286.716 21.5205V21.7365H282.972L283.692 7.66047H294.132V11.2605H287.22L286.896 17.2725H286.968C287.712 16.0485 288.852 15.4365 290.388 15.4365C291.828 15.4365 292.92 15.9285 293.664 16.9125C294.408 17.8965 294.78 19.3245 294.78 21.1965V26.8845C294.78 28.9245 294.276 30.4965 293.268 31.6005C292.26 32.6805 290.796 33.2205 288.876 33.2205ZM301.094 7.66047H306.746L309.266 25.6965H309.338L311.858 7.66047H317.51V32.8605H313.766V13.7805H313.694L310.814 32.8605H307.502L304.622 13.7805H304.55V32.8605H301.094V7.66047Z" fill="black"/>
<path d="M776.618 33.2205C774.698 33.2205 773.234 32.6805 772.226 31.6005C771.218 30.4965 770.714 28.9245 770.714 26.8845V24.9045H774.458V27.1725C774.458 28.8045 775.142 29.6205 776.51 29.6205C777.878 29.6205 778.562 28.8045 778.562 27.1725V21.5205C778.562 19.8645 777.878 19.0365 776.51 19.0365C775.142 19.0365 774.458 19.8645 774.458 21.5205V21.7365H770.714L771.434 7.66047H781.874V11.2605H774.962L774.638 17.2725H774.71C775.454 16.0485 776.594 15.4365 778.13 15.4365C779.57 15.4365 780.662 15.9285 781.406 16.9125C782.15 17.8965 782.522 19.3245 782.522 21.1965V26.8845C782.522 28.9245 782.018 30.4965 781.01 31.6005C780.002 32.6805 778.538 33.2205 776.618 33.2205ZM788.836 7.66047H794.488L797.008 25.6965H797.08L799.6 7.66047H805.252V32.8605H801.508V13.7805H801.436L798.556 32.8605H795.244L792.364 13.7805H792.292V32.8605H788.836V7.66047Z" fill="black"/>
<path d="M352.487 33.2205C350.543 33.2205 349.055 32.6685 348.023 31.5645C346.991 30.4605 346.475 28.9005 346.475 26.8845V13.8525C346.475 9.48447 348.491 7.30047 352.523 7.30047C354.443 7.30047 355.907 7.85247 356.915 8.95647C357.923 10.0365 358.427 11.5965 358.427 13.6365V14.1045H354.683V13.3845C354.683 11.7285 353.999 10.9005 352.631 10.9005C351.887 10.9005 351.335 11.1285 350.975 11.5845C350.615 12.0405 350.435 12.8445 350.435 13.9965V18.8205H350.507C351.203 17.3565 352.403 16.6245 354.107 16.6245C355.547 16.6245 356.639 17.1165 357.383 18.1005C358.127 19.0845 358.499 20.5125 358.499 22.3845V26.8845C358.499 28.9005 357.983 30.4605 356.951 31.5645C355.919 32.6685 354.431 33.2205 352.487 33.2205ZM352.487 29.6205C353.855 29.6205 354.539 28.8045 354.539 27.1725V22.7085C354.539 21.0525 353.855 20.2245 352.487 20.2245C351.119 20.2245 350.435 21.0525 350.435 22.7085V27.1725C350.435 28.8045 351.119 29.6205 352.487 29.6205ZM364.669 7.66047H370.321L372.841 25.6965H372.913L375.433 7.66047H381.085V32.8605H377.341V13.7805H377.269L374.389 32.8605H371.077L368.197 13.7805H368.125V32.8605H364.669V7.66047Z" fill="black"/>
<path d="M713.076 33.2205C711.132 33.2205 709.644 32.6685 708.612 31.5645C707.58 30.4605 707.064 28.9005 707.064 26.8845V13.8525C707.064 9.48447 709.08 7.30047 713.112 7.30047C715.032 7.30047 716.496 7.85247 717.504 8.95647C718.512 10.0365 719.016 11.5965 719.016 13.6365V14.1045H715.272V13.3845C715.272 11.7285 714.588 10.9005 713.22 10.9005C712.476 10.9005 711.924 11.1285 711.564 11.5845C711.204 12.0405 711.024 12.8445 711.024 13.9965V18.8205H711.096C711.792 17.3565 712.992 16.6245 714.696 16.6245C716.136 16.6245 717.228 17.1165 717.972 18.1005C718.716 19.0845 719.088 20.5125 719.088 22.3845V26.8845C719.088 28.9005 718.572 30.4605 717.54 31.5645C716.508 32.6685 715.02 33.2205 713.076 33.2205ZM713.076 29.6205C714.444 29.6205 715.128 28.8045 715.128 27.1725V22.7085C715.128 21.0525 714.444 20.2245 713.076 20.2245C711.708 20.2245 711.024 21.0525 711.024 22.7085V27.1725C711.024 28.8045 711.708 29.6205 713.076 29.6205ZM725.258 7.66047H730.91L733.43 25.6965H733.502L736.022 7.66047H741.674V32.8605H737.93V13.7805H737.858L734.978 32.8605H731.666L728.786 13.7805H728.714V32.8605H725.258V7.66047Z" fill="black"/>
<path d="M126.325 685.133C126.325 683.333 126.613 681.797 127.189 680.525C127.765 679.229 128.797 677.801 130.285 676.241C131.749 674.681 132.757 673.349 133.309 672.245C133.885 671.141 134.173 669.989 134.173 668.789C134.173 667.709 133.993 666.965 133.633 666.557C133.297 666.125 132.793 665.909 132.121 665.909C130.753 665.909 130.069 666.737 130.069 668.393V671.093H126.325V668.645C126.325 666.605 126.829 665.045 127.837 663.965C128.845 662.861 130.309 662.309 132.229 662.309C134.149 662.309 135.613 662.861 136.621 663.965C137.629 665.045 138.133 666.605 138.133 668.645C138.133 670.181 137.761 671.681 137.017 673.145C136.297 674.609 135.037 676.289 133.237 678.185C132.061 679.433 131.269 680.453 130.861 681.245C130.453 682.013 130.249 682.841 130.249 683.729V684.269H137.773V687.869H126.325V685.133ZM144.411 662.669H150.063L152.583 680.705H152.655L155.175 662.669H160.827V687.869H157.083V668.789H157.011L154.131 687.869H150.819L147.939 668.789H147.867V687.869H144.411V662.669Z" fill="black"/>
<path d="M925.421 685.133C925.421 683.333 925.709 681.797 926.285 680.525C926.861 679.229 927.893 677.801 929.381 676.241C930.845 674.681 931.853 673.349 932.405 672.245C932.981 671.141 933.269 669.989 933.269 668.789C933.269 667.709 933.089 666.965 932.729 666.557C932.393 666.125 931.889 665.909 931.217 665.909C929.849 665.909 929.165 666.737 929.165 668.393V671.093H925.421V668.645C925.421 666.605 925.925 665.045 926.933 663.965C927.941 662.861 929.405 662.309 931.325 662.309C933.245 662.309 934.709 662.861 935.717 663.965C936.725 665.045 937.229 666.605 937.229 668.645C937.229 670.181 936.857 671.681 936.113 673.145C935.393 674.609 934.133 676.289 932.333 678.185C931.157 679.433 930.365 680.453 929.957 681.245C929.549 682.013 929.345 682.841 929.345 683.729V684.269H936.869V687.869H925.421V685.133ZM943.507 662.669H949.159L951.679 680.705H951.751L954.271 662.669H959.923V687.869H956.179V668.789H956.107L953.227 687.869H949.915L947.035 668.789H946.963V687.869H943.507V662.669Z" fill="black"/>
<path d="M288.876 688.229C286.956 688.229 285.492 687.689 284.484 686.609C283.476 685.505 282.972 683.933 282.972 681.893V679.913H286.716V682.181C286.716 683.813 287.4 684.629 288.768 684.629C290.136 684.629 290.82 683.813 290.82 682.181V676.529C290.82 674.873 290.136 674.045 288.768 674.045C287.4 674.045 286.716 674.873 286.716 676.529V676.745H282.972L283.692 662.669H294.132V666.269H287.22L286.896 672.281H286.968C287.712 671.057 288.852 670.445 290.388 670.445C291.828 670.445 292.92 670.937 293.664 671.921C294.408 672.905 294.78 674.333 294.78 676.205V681.893C294.78 683.933 294.276 685.505 293.268 686.609C292.26 687.689 290.796 688.229 288.876 688.229ZM301.094 662.669H306.746L309.266 680.705H309.338L311.858 662.669H317.51V687.869H313.766V668.789H313.694L310.814 687.869H307.502L304.622 668.789H304.55V687.869H301.094V662.669Z" fill="black"/>
<path d="M776.618 688.229C774.698 688.229 773.234 687.689 772.226 686.609C771.218 685.505 770.714 683.933 770.714 681.893V679.913H774.458V682.181C774.458 683.813 775.142 684.629 776.51 684.629C777.878 684.629 778.562 683.813 778.562 682.181V676.529C778.562 674.873 777.878 674.045 776.51 674.045C775.142 674.045 774.458 674.873 774.458 676.529V676.745H770.714L771.434 662.669H781.874V666.269H774.962L774.638 672.281H774.71C775.454 671.057 776.594 670.445 778.13 670.445C779.57 670.445 780.662 670.937 781.406 671.921C782.15 672.905 782.522 674.333 782.522 676.205V681.893C782.522 683.933 782.018 685.505 781.01 686.609C780.002 687.689 778.538 688.229 776.618 688.229ZM788.836 662.669H794.488L797.008 680.705H797.08L799.6 662.669H805.252V687.869H801.508V668.789H801.436L798.556 687.869H795.244L792.364 668.789H792.292V687.869H788.836V662.669Z" fill="black"/>
<path d="M352.487 688.229C350.543 688.229 349.055 687.677 348.023 686.573C346.991 685.469 346.475 683.909 346.475 681.893V668.861C346.475 664.493 348.491 662.309 352.523 662.309C354.443 662.309 355.907 662.861 356.915 663.965C357.923 665.045 358.427 666.605 358.427 668.645V669.113H354.683V668.393C354.683 666.737 353.999 665.909 352.631 665.909C351.887 665.909 351.335 666.137 350.975 666.593C350.615 667.049 350.435 667.853 350.435 669.005V673.829H350.507C351.203 672.365 352.403 671.633 354.107 671.633C355.547 671.633 356.639 672.125 357.383 673.109C358.127 674.093 358.499 675.521 358.499 677.393V681.893C358.499 683.909 357.983 685.469 356.951 686.573C355.919 687.677 354.431 688.229 352.487 688.229ZM352.487 684.629C353.855 684.629 354.539 683.813 354.539 682.181V677.717C354.539 676.061 353.855 675.233 352.487 675.233C351.119 675.233 350.435 676.061 350.435 677.717V682.181C350.435 683.813 351.119 684.629 352.487 684.629ZM364.669 662.669H370.321L372.841 680.705H372.913L375.433 662.669H381.085V687.869H377.341V668.789H377.269L374.389 687.869H371.077L368.197 668.789H368.125V687.869H364.669V662.669Z" fill="black"/>
<path d="M713.076 688.229C711.132 688.229 709.644 687.677 708.612 686.573C707.58 685.469 707.064 683.909 707.064 681.893V668.861C707.064 664.493 709.08 662.309 713.112 662.309C715.032 662.309 716.496 662.861 717.504 663.965C718.512 665.045 719.016 666.605 719.016 668.645V669.113H715.272V668.393C715.272 666.737 714.588 665.909 713.22 665.909C712.476 665.909 711.924 666.137 711.564 666.593C711.204 667.049 711.024 667.853 711.024 669.005V673.829H711.096C711.792 672.365 712.992 671.633 714.696 671.633C716.136 671.633 717.228 672.125 717.972 673.109C718.716 674.093 719.088 675.521 719.088 677.393V681.893C719.088 683.909 718.572 685.469 717.54 686.573C716.508 687.677 715.02 688.229 713.076 688.229ZM713.076 684.629C714.444 684.629 715.128 683.813 715.128 682.181V677.717C715.128 676.061 714.444 675.233 713.076 675.233C711.708 675.233 711.024 676.061 711.024 677.717V682.181C711.024 683.813 711.708 684.629 713.076 684.629ZM725.258 662.669H730.91L733.43 680.705H733.502L736.022 662.669H741.674V687.869H737.93V668.789H737.858L734.978 687.869H731.666L728.786 668.789H728.714V687.869H725.258V662.669Z" fill="black"/>
<rect x="68.0684" y="37.3102" width="105.418" height="9.67583" fill="#FF0000"/>
<rect x="914.847" y="37.3102" width="101.624" height="9.67583" fill="#FF0000"/>
<rect x="173.486" y="37.3102" width="190.385" height="9.67583" fill="#FFD23F"/>
<rect x="724.462" y="37.3102" width="190.385" height="9.67583" fill="#FFD23F"/>
<rect x="363.872" y="37.3102" width="360.589" height="9.67583" fill="#497F2C"/>
<rect x="68.0684" y="646.193" width="105.418" height="9.67583" fill="#FF0000"/>
<rect x="914.847" y="646.193" width="101.624" height="9.67583" fill="#FF0000"/>
<rect x="173.486" y="646.193" width="190.385" height="9.67583" fill="#FFD23F"/>
<rect x="724.462" y="646.193" width="190.385" height="9.67583" fill="#FFD23F"/>
<rect x="363.872" y="646.193" width="360.589" height="9.67583" fill="#497F2C"/>
<rect x="68.0684" y="445.737" width="95.8324" height="12.8558" transform="rotate(90 68.0684 445.737)" fill="#FF0000"/>
<rect x="68.0684" y="164.318" width="95.8324" height="12.8558" transform="rotate(90 68.0684 164.318)" fill="#FF0000"/>
<rect x="1029.33" y="445.737" width="95.8324" height="12.8558" transform="rotate(90 1029.33 445.737)" fill="#FF0000"/>
<rect x="1029.33" y="164.318" width="95.8324" height="12.8558" transform="rotate(90 1029.33 164.318)" fill="#FF0000"/>
</svg>
