<svg width="1097" height="724" viewBox="0 0 1097 724" fill="none" xmlns="http://www.w3.org/2000/svg">
<mask id="path-1-inside-1_604_330" fill="white">
<path d="M408.564 81.8757L709.667 81.8757L709.667 0.153167L408.564 0.153175L408.564 81.8757Z"/>
</mask>
<path d="M709.667 0.153167L709.667 -4.84683L714.667 -4.84683L714.667 0.153167L709.667 0.153167ZM408.564 0.153175L403.564 0.153175L403.564 -4.84682L408.564 -4.84682L408.564 0.153175ZM704.667 81.8757L704.667 0.153167L714.667 0.153167L714.667 81.8757L704.667 81.8757ZM709.667 5.15317L408.564 5.15318L408.564 -4.84682L709.667 -4.84683L709.667 5.15317ZM413.564 0.153175L413.564 81.8757L403.564 81.8757L403.564 0.153175L413.564 0.153175Z" fill="black" mask="url(#path-1-inside-1_604_330)"/>
<path d="M62.7178 390.486L1034.89 390.486" stroke="#FFD23F" stroke-width="5" stroke-dasharray="6 6"/>
<path d="M62.7178 466.149L1034.89 466.149" stroke="#497F2C" stroke-width="5" stroke-dasharray="6 6"/>
<path d="M62.7178 236.181L1034.89 236.181" stroke="#FF0000" stroke-width="5" stroke-dasharray="6 6"/>
<rect x="65.2178" y="720.52" width="636.15" height="967.175" transform="rotate(-90 65.2178 720.52)" stroke="black" stroke-width="5"/>
<path d="M6.62325 240.523C6.62325 238.723 6.91125 237.187 7.48725 235.915C8.06325 234.619 9.09525 233.191 10.5833 231.631C12.0473 230.071 13.0553 228.739 13.6073 227.635C14.1833 226.531 14.4713 225.379 14.4713 224.179C14.4713 223.099 14.2913 222.355 13.9313 221.947C13.5953 221.515 13.0913 221.299 12.4193 221.299C11.0513 221.299 10.3673 222.127 10.3673 223.783V226.483H6.62325V224.035C6.62325 221.995 7.12725 220.435 8.13525 219.355C9.14325 218.251 10.6073 217.699 12.5273 217.699C14.4473 217.699 15.9113 218.251 16.9193 219.355C17.9273 220.435 18.4313 221.995 18.4313 224.035C18.4313 225.571 18.0593 227.071 17.3153 228.535C16.5953 229.999 15.3353 231.679 13.5353 233.575C12.3593 234.823 11.5673 235.843 11.1593 236.635C10.7513 237.403 10.5473 238.231 10.5473 239.119V239.659H18.0713V243.259H6.62325V240.523ZM24.7093 218.059H30.3613L32.8813 236.095H32.9533L35.4733 218.059H41.1253V243.259H37.3813V224.179H37.3093L34.4293 243.259H31.1173L28.2373 224.179H28.1653V243.259H24.7093V218.059Z" fill="black"/>
<path d="M12.4913 396.714C10.5713 396.714 9.10725 396.174 8.09925 395.094C7.09125 393.99 6.58725 392.418 6.58725 390.378V388.398H10.3313V390.666C10.3313 392.298 11.0153 393.114 12.3833 393.114C13.7513 393.114 14.4353 392.298 14.4353 390.666V385.014C14.4353 383.358 13.7513 382.53 12.3833 382.53C11.0153 382.53 10.3313 383.358 10.3313 385.014V385.23H6.58725L7.30725 371.154H17.7473V374.754H10.8353L10.5113 380.766H10.5833C11.3273 379.542 12.4673 378.93 14.0033 378.93C15.4433 378.93 16.5353 379.422 17.2793 380.406C18.0233 381.39 18.3953 382.818 18.3953 384.69V390.378C18.3953 392.418 17.8913 393.99 16.8833 395.094C15.8753 396.174 14.4113 396.714 12.4913 396.714ZM24.7093 371.154H30.3613L32.8813 389.19H32.9533L35.4733 371.154H41.1253V396.354H37.3813V377.274H37.3093L34.4293 396.354H31.1173L28.2373 377.274H28.1653V396.354H24.7093V371.154Z" fill="black"/>
<path d="M12.5419 473.867C10.5979 473.867 9.1099 473.315 8.0779 472.211C7.0459 471.107 6.5299 469.547 6.5299 467.531V454.499C6.5299 450.131 8.5459 447.947 12.5779 447.947C14.4979 447.947 15.9619 448.499 16.9699 449.603C17.9779 450.683 18.4819 452.243 18.4819 454.283V454.751H14.7379V454.031C14.7379 452.375 14.0539 451.547 12.6859 451.547C11.9419 451.547 11.3899 451.775 11.0299 452.231C10.6699 452.687 10.4899 453.491 10.4899 454.643V459.467H10.5619C11.2579 458.003 12.4579 457.271 14.1619 457.271C15.6019 457.271 16.6939 457.763 17.4379 458.747C18.1819 459.731 18.5539 461.159 18.5539 463.031V467.531C18.5539 469.547 18.0379 471.107 17.0059 472.211C15.9739 473.315 14.4859 473.867 12.5419 473.867ZM12.5419 470.267C13.9099 470.267 14.5939 469.451 14.5939 467.819V463.355C14.5939 461.699 13.9099 460.871 12.5419 460.871C11.1739 460.871 10.4899 461.699 10.4899 463.355V467.819C10.4899 469.451 11.1739 470.267 12.5419 470.267ZM24.724 448.307H30.376L32.896 466.343H32.968L35.488 448.307H41.14V473.507H37.396V454.427H37.324L34.444 473.507H31.132L28.252 454.427H28.18V473.507H24.724V448.307Z" fill="black"/>
<path d="M1056.37 239.313C1056.37 237.513 1056.66 235.977 1057.24 234.705C1057.81 233.409 1058.85 231.981 1060.33 230.421C1061.8 228.861 1062.81 227.529 1063.36 226.425C1063.93 225.321 1064.22 224.169 1064.22 222.969C1064.22 221.889 1064.04 221.145 1063.68 220.737C1063.35 220.305 1062.84 220.089 1062.17 220.089C1060.8 220.089 1060.12 220.917 1060.12 222.573V225.273H1056.37V222.825C1056.37 220.785 1056.88 219.225 1057.89 218.145C1058.89 217.041 1060.36 216.489 1062.28 216.489C1064.2 216.489 1065.66 217.041 1066.67 218.145C1067.68 219.225 1068.18 220.785 1068.18 222.825C1068.18 224.361 1067.81 225.861 1067.07 227.325C1066.35 228.789 1065.09 230.469 1063.29 232.365C1062.11 233.613 1061.32 234.633 1060.91 235.425C1060.5 236.193 1060.3 237.021 1060.3 237.909V238.449H1067.82V242.049H1056.37V239.313ZM1074.46 216.849H1080.11L1082.63 234.885H1082.7L1085.22 216.849H1090.88V242.049H1087.13V222.969H1087.06L1084.18 242.049H1080.87L1077.99 222.969H1077.92V242.049H1074.46V216.849Z" fill="black"/>
<path d="M1062.24 396.714C1060.32 396.714 1058.86 396.174 1057.85 395.094C1056.84 393.99 1056.34 392.418 1056.34 390.378V388.398H1060.08V390.666C1060.08 392.298 1060.77 393.114 1062.13 393.114C1063.5 393.114 1064.19 392.298 1064.19 390.666V385.014C1064.19 383.358 1063.5 382.53 1062.13 382.53C1060.77 382.53 1060.08 383.358 1060.08 385.014V385.23H1056.34L1057.06 371.154H1067.5V374.754H1060.59L1060.26 380.766H1060.33C1061.08 379.542 1062.22 378.93 1063.75 378.93C1065.19 378.93 1066.29 379.422 1067.03 380.406C1067.77 381.39 1068.15 382.818 1068.15 384.69V390.378C1068.15 392.418 1067.64 393.99 1066.63 395.094C1065.63 396.174 1064.16 396.714 1062.24 396.714ZM1074.46 371.154H1080.11L1082.63 389.19H1082.7L1085.22 371.154H1090.88V396.354H1087.13V377.274H1087.06L1084.18 396.354H1080.87L1077.99 377.274H1077.92V396.354H1074.46V371.154Z" fill="black"/>
<path d="M1062.28 472.377C1060.33 472.377 1058.85 471.825 1057.81 470.721C1056.78 469.617 1056.27 468.057 1056.27 466.041V453.009C1056.27 448.641 1058.28 446.457 1062.31 446.457C1064.23 446.457 1065.7 447.009 1066.71 448.113C1067.71 449.193 1068.22 450.753 1068.22 452.793V453.261H1064.47V452.541C1064.47 450.885 1063.79 450.057 1062.42 450.057C1061.68 450.057 1061.13 450.285 1060.77 450.741C1060.41 451.197 1060.23 452.001 1060.23 453.153V457.977H1060.3C1060.99 456.513 1062.19 455.781 1063.9 455.781C1065.34 455.781 1066.43 456.273 1067.17 457.257C1067.92 458.241 1068.29 459.669 1068.29 461.541V466.041C1068.29 468.057 1067.77 469.617 1066.74 470.721C1065.71 471.825 1064.22 472.377 1062.28 472.377ZM1062.28 468.777C1063.65 468.777 1064.33 467.961 1064.33 466.329V461.865C1064.33 460.209 1063.65 459.381 1062.28 459.381C1060.91 459.381 1060.23 460.209 1060.23 461.865V466.329C1060.23 467.961 1060.91 468.777 1062.28 468.777ZM1074.46 446.817H1080.11L1082.63 464.853H1082.7L1085.22 446.817H1090.88V472.017H1087.13V452.937H1087.06L1084.18 472.017H1080.87L1077.99 452.937H1077.92V472.017H1074.46V446.817Z" fill="black"/>
<rect x="47.0195" y="237.391" width="155.515" height="15.6984" transform="rotate(-90 47.0195 237.391)" fill="#FF0000"/>
<rect x="47.0195" y="466.149" width="228.758" height="15.6984" transform="rotate(-90 47.0195 466.149)" fill="#FFD23F"/>
<rect x="47.0195" y="723.02" width="256.871" height="15.6984" transform="rotate(-90 47.0195 723.02)" fill="#497F2C"/>
<rect x="1034.87" y="236.181" width="154.313" height="15.6984" transform="rotate(-90 1034.87 236.181)" fill="#FF0000"/>
<rect x="1034.87" y="466.149" width="229.968" height="15.6984" transform="rotate(-90 1034.87 466.149)" fill="#FFD23F"/>
<rect x="1034.87" y="723.02" width="256.871" height="15.6984" transform="rotate(-90 1034.87 723.02)" fill="#497F2C"/>
</svg>
