<svg width="1091" height="684" viewBox="0 0 1091 684" fill="none" xmlns="http://www.w3.org/2000/svg">
<mask id="path-1-inside-1_783_36" fill="white">
<path d="M406.306 77.6464L705.642 77.6464L705.642 0.432548L406.306 0.432556L406.306 77.6464Z"/>
</mask>
<path d="M705.642 0.432548L705.642 -4.56745L710.642 -4.56745L710.642 0.432548L705.642 0.432548ZM406.306 0.432556L401.306 0.432556L401.306 -4.56744L406.306 -4.56744L406.306 0.432556ZM700.642 77.6464L700.642 0.432549L710.642 0.432548L710.642 77.6464L700.642 77.6464ZM705.642 5.43255L406.306 5.43256L406.306 -4.56744L705.642 -4.56745L705.642 5.43255ZM411.306 0.432556L411.306 77.6464L401.306 77.6464L401.306 0.432556L411.306 0.432556Z" fill="black" mask="url(#path-1-inside-1_783_36)"/>
<path d="M62.4873 369.23L1028.96 369.23" stroke="#FFD23F" stroke-width="5" stroke-dasharray="6 6"/>
<path d="M62.4873 440.719L1028.96 440.719" stroke="#497F2C" stroke-width="5" stroke-dasharray="6 6"/>
<path d="M62.4873 223.439L1028.96 223.439" stroke="#FF0000" stroke-width="5" stroke-dasharray="6 6"/>
<rect x="64.9873" y="680.918" width="600.776" height="961.472" transform="rotate(-90 64.9873 680.918)" stroke="black" stroke-width="5"/>
<path d="M6.6206 229.156C6.6206 227.356 6.9086 225.82 7.4846 224.548C8.0606 223.252 9.0926 221.824 10.5806 220.264C12.0446 218.704 13.0526 217.372 13.6046 216.268C14.1806 215.164 14.4686 214.012 14.4686 212.812C14.4686 211.732 14.2886 210.988 13.9286 210.58C13.5926 210.148 13.0886 209.932 12.4166 209.932C11.0486 209.932 10.3646 210.76 10.3646 212.416V215.116H6.6206V212.668C6.6206 210.628 7.1246 209.068 8.1326 207.988C9.1406 206.884 10.6046 206.332 12.5246 206.332C14.4446 206.332 15.9086 206.884 16.9166 207.988C17.9246 209.068 18.4286 210.628 18.4286 212.668C18.4286 214.204 18.0566 215.704 17.3126 217.168C16.5926 218.632 15.3326 220.312 13.5326 222.208C12.3566 223.456 11.5646 224.476 11.1566 225.268C10.7486 226.036 10.5446 226.864 10.5446 227.752V228.292H18.0686V231.892H6.6206V229.156ZM24.7067 206.692H30.3587L32.8787 224.728H32.9507L35.4707 206.692H41.1227V231.892H37.3787V212.812H37.3067L34.4267 231.892H31.1147L28.2347 212.812H28.1627V231.892H24.7067V206.692Z" fill="black"/>
<path d="M12.4886 376.9C10.5686 376.9 9.1046 376.36 8.0966 375.28C7.0886 374.176 6.5846 372.604 6.5846 370.564V368.584H10.3286V370.852C10.3286 372.484 11.0126 373.3 12.3806 373.3C13.7486 373.3 14.4326 372.484 14.4326 370.852V365.2C14.4326 363.544 13.7486 362.716 12.3806 362.716C11.0126 362.716 10.3286 363.544 10.3286 365.2V365.416H6.5846L7.3046 351.34H17.7446V354.94H10.8326L10.5086 360.952H10.5806C11.3246 359.728 12.4646 359.116 14.0006 359.116C15.4406 359.116 16.5326 359.608 17.2766 360.592C18.0206 361.576 18.3926 363.004 18.3926 364.876V370.564C18.3926 372.604 17.8886 374.176 16.8806 375.28C15.8726 376.36 14.4086 376.9 12.4886 376.9ZM24.7067 351.34H30.3587L32.8787 369.376H32.9507L35.4707 351.34H41.1227V376.54H37.3787V357.46H37.3067L34.4267 376.54H31.1147L28.2347 357.46H28.1627V376.54H24.7067V351.34Z" fill="black"/>
<path d="M12.5392 449.796C10.5952 449.796 9.10725 449.244 8.07525 448.14C7.04325 447.036 6.52725 445.476 6.52725 443.46V430.428C6.52725 426.06 8.54325 423.876 12.5752 423.876C14.4952 423.876 15.9592 424.428 16.9672 425.532C17.9752 426.612 18.4792 428.172 18.4792 430.212V430.68H14.7352V429.96C14.7352 428.304 14.0512 427.476 12.6832 427.476C11.9392 427.476 11.3872 427.704 11.0272 428.16C10.6672 428.616 10.4872 429.42 10.4872 430.572V435.396H10.5592C11.2552 433.932 12.4552 433.2 14.1592 433.2C15.5992 433.2 16.6912 433.692 17.4352 434.676C18.1792 435.66 18.5512 437.088 18.5512 438.96V443.46C18.5512 445.476 18.0352 447.036 17.0032 448.14C15.9712 449.244 14.4832 449.796 12.5392 449.796ZM12.5392 446.196C13.9072 446.196 14.5912 445.38 14.5912 443.748V439.284C14.5912 437.628 13.9072 436.8 12.5392 436.8C11.1712 436.8 10.4872 437.628 10.4872 439.284V443.748C10.4872 445.38 11.1712 446.196 12.5392 446.196ZM24.7213 424.236H30.3733L32.8933 442.272H32.9653L35.4853 424.236H41.1373V449.436H37.3933V430.356H37.3213L34.4413 449.436H31.1293L28.2493 430.356H28.1773V449.436H24.7213V424.236Z" fill="black"/>
<path d="M1050.21 228.012C1050.21 226.212 1050.5 224.676 1051.08 223.404C1051.65 222.108 1052.68 220.68 1054.17 219.12C1055.64 217.56 1056.64 216.228 1057.2 215.124C1057.77 214.02 1058.06 212.868 1058.06 211.668C1058.06 210.588 1057.88 209.844 1057.52 209.436C1057.18 209.004 1056.68 208.788 1056.01 208.788C1054.64 208.788 1053.96 209.616 1053.96 211.272V213.972H1050.21V211.524C1050.21 209.484 1050.72 207.924 1051.72 206.844C1052.73 205.74 1054.2 205.188 1056.12 205.188C1058.04 205.188 1059.5 205.74 1060.51 206.844C1061.52 207.924 1062.02 209.484 1062.02 211.524C1062.02 213.06 1061.65 214.56 1060.9 216.024C1060.18 217.488 1058.92 219.168 1057.12 221.064C1055.95 222.312 1055.16 223.332 1054.75 224.124C1054.34 224.892 1054.14 225.72 1054.14 226.608V227.148H1061.66V230.748H1050.21V228.012ZM1068.3 205.548H1073.95L1076.47 223.584H1076.54L1079.06 205.548H1084.71V230.748H1080.97V211.668H1080.9L1078.02 230.748H1074.71L1071.83 211.668H1071.75V230.748H1068.3V205.548Z" fill="black"/>
<path d="M1056.08 376.9C1054.16 376.9 1052.7 376.36 1051.69 375.28C1050.68 374.176 1050.18 372.604 1050.18 370.564V368.584H1053.92V370.852C1053.92 372.484 1054.6 373.3 1055.97 373.3C1057.34 373.3 1058.02 372.484 1058.02 370.852V365.2C1058.02 363.544 1057.34 362.716 1055.97 362.716C1054.6 362.716 1053.92 363.544 1053.92 365.2V365.416H1050.18L1050.9 351.34H1061.34V354.94H1054.42L1054.1 360.952H1054.17C1054.92 359.728 1056.06 359.116 1057.59 359.116C1059.03 359.116 1060.12 359.608 1060.87 360.592C1061.61 361.576 1061.98 363.004 1061.98 364.876V370.564C1061.98 372.604 1061.48 374.176 1060.47 375.28C1059.46 376.36 1058 376.9 1056.08 376.9ZM1068.3 351.34H1073.95L1076.47 369.376H1076.54L1079.06 351.34H1084.71V376.54H1080.97V357.46H1080.9L1078.02 376.54H1074.71L1071.83 357.46H1071.75V376.54H1068.3V351.34Z" fill="black"/>
<path d="M1056.12 448.389C1054.17 448.389 1052.68 447.837 1051.65 446.733C1050.62 445.629 1050.1 444.069 1050.1 442.053V429.021C1050.1 424.653 1052.12 422.469 1056.15 422.469C1058.07 422.469 1059.54 423.021 1060.54 424.125C1061.55 425.205 1062.06 426.765 1062.06 428.805V429.273H1058.31V428.553C1058.31 426.897 1057.63 426.069 1056.26 426.069C1055.52 426.069 1054.96 426.297 1054.6 426.753C1054.24 427.209 1054.06 428.013 1054.06 429.165V433.989H1054.14C1054.83 432.525 1056.03 431.793 1057.74 431.793C1059.18 431.793 1060.27 432.285 1061.01 433.269C1061.76 434.253 1062.13 435.681 1062.13 437.553V442.053C1062.13 444.069 1061.61 445.629 1060.58 446.733C1059.55 447.837 1058.06 448.389 1056.12 448.389ZM1056.12 444.789C1057.48 444.789 1058.17 443.973 1058.17 442.341V437.877C1058.17 436.221 1057.48 435.393 1056.12 435.393C1054.75 435.393 1054.06 436.221 1054.06 437.877V442.341C1054.06 443.973 1054.75 444.789 1056.12 444.789ZM1068.3 422.829H1073.95L1076.47 440.865H1076.54L1079.06 422.829H1084.71V448.029H1080.97V428.949H1080.9L1078.02 448.029H1074.71L1071.83 428.949H1071.75V448.029H1068.3V422.829Z" fill="black"/>
<rect x="46.8809" y="224.582" width="146.935" height="15.6063" transform="rotate(-90 46.8809 224.582)" fill="#FF0000"/>
<rect x="287.01" y="66.2623" width="119.296" height="11.3765" fill="#FF0000"/>
<rect x="705.642" y="66.2623" width="119.296" height="11.3765" fill="#FF0000"/>
<rect x="46.8809" y="440.719" width="216.137" height="15.6063" transform="rotate(-90 46.8809 440.719)" fill="#FFD23F"/>
<rect x="46.8809" y="683.418" width="242.699" height="15.6063" transform="rotate(-90 46.8809 683.418)" fill="#497F2C"/>
<rect x="1028.94" y="223.439" width="145.8" height="15.6063" transform="rotate(-90 1028.94 223.439)" fill="#FF0000"/>
<rect x="1028.94" y="440.719" width="217.28" height="15.6063" transform="rotate(-90 1028.94 440.719)" fill="#FFD23F"/>
<rect x="1028.94" y="683.418" width="242.699" height="15.6063" transform="rotate(-90 1028.94 683.418)" fill="#497F2C"/>
</svg>
